<mxfile host="app.diagrams.net" modified="2022-06-08T12:50:19.146Z" agent="5.0 (Windows)" etag="rh-iM7Dhd-UDnOCyhWmb" version="19.0.2" type="github">
  <diagram id="sEQqUNNo2czjuSJTAVwh" name="Page-1">
    <mxGraphModel dx="763" dy="751" grid="1" gridSize="10" guides="1" tooltips="1" connect="1" arrows="1" fold="1" page="1" pageScale="1" pageWidth="827" pageHeight="1169" math="0" shadow="0">
      <root>
        <mxCell id="0" />
        <mxCell id="1" parent="0" />
        <mxCell id="0XRb7Jwyh2wc5KVwc6p0-12" style="edgeStyle=orthogonalEdgeStyle;orthogonalLoop=1;jettySize=auto;html=1;curved=1;" edge="1" parent="1" source="0XRb7Jwyh2wc5KVwc6p0-2" target="0XRb7Jwyh2wc5KVwc6p0-8">
          <mxGeometry relative="1" as="geometry" />
        </mxCell>
        <mxCell id="0XRb7Jwyh2wc5KVwc6p0-2" value="Provider" style="shape=umlActor;verticalLabelPosition=bottom;verticalAlign=top;html=1;outlineConnect=0;" vertex="1" parent="1">
          <mxGeometry x="368" y="140" width="30" height="60" as="geometry" />
        </mxCell>
        <mxCell id="0XRb7Jwyh2wc5KVwc6p0-14" style="edgeStyle=orthogonalEdgeStyle;curved=1;orthogonalLoop=1;jettySize=auto;html=1;" edge="1" parent="1" source="0XRb7Jwyh2wc5KVwc6p0-7" target="0XRb7Jwyh2wc5KVwc6p0-8">
          <mxGeometry relative="1" as="geometry" />
        </mxCell>
        <mxCell id="0XRb7Jwyh2wc5KVwc6p0-7" value="Client" style="shape=umlActor;verticalLabelPosition=bottom;verticalAlign=top;html=1;outlineConnect=0;" vertex="1" parent="1">
          <mxGeometry x="245" y="140" width="30" height="60" as="geometry" />
        </mxCell>
        <mxCell id="0XRb7Jwyh2wc5KVwc6p0-15" style="edgeStyle=orthogonalEdgeStyle;curved=1;orthogonalLoop=1;jettySize=auto;html=1;" edge="1" parent="1" source="0XRb7Jwyh2wc5KVwc6p0-8" target="0XRb7Jwyh2wc5KVwc6p0-11">
          <mxGeometry relative="1" as="geometry" />
        </mxCell>
        <mxCell id="0XRb7Jwyh2wc5KVwc6p0-18" style="edgeStyle=orthogonalEdgeStyle;curved=1;orthogonalLoop=1;jettySize=auto;html=1;entryX=0.5;entryY=0;entryDx=0;entryDy=0;exitX=1;exitY=0.5;exitDx=0;exitDy=0;" edge="1" parent="1" source="0XRb7Jwyh2wc5KVwc6p0-8" target="0XRb7Jwyh2wc5KVwc6p0-10">
          <mxGeometry relative="1" as="geometry" />
        </mxCell>
        <mxCell id="0XRb7Jwyh2wc5KVwc6p0-8" value="&lt;div align=&quot;center&quot;&gt;&amp;lt;&amp;lt;app&amp;gt;&amp;gt;&lt;/div&gt;" style="whiteSpace=wrap;html=1;aspect=fixed;align=center;" vertex="1" parent="1">
          <mxGeometry x="238" y="280" width="160" height="160" as="geometry" />
        </mxCell>
        <mxCell id="0XRb7Jwyh2wc5KVwc6p0-17" style="edgeStyle=orthogonalEdgeStyle;curved=1;orthogonalLoop=1;jettySize=auto;html=1;entryX=1;entryY=0.5;entryDx=0;entryDy=0;exitX=0.5;exitY=0;exitDx=0;exitDy=0;" edge="1" parent="1" source="0XRb7Jwyh2wc5KVwc6p0-10" target="0XRb7Jwyh2wc5KVwc6p0-8">
          <mxGeometry relative="1" as="geometry">
            <Array as="points">
              <mxPoint x="460" y="490" />
              <mxPoint x="460" y="360" />
            </Array>
          </mxGeometry>
        </mxCell>
        <mxCell id="0XRb7Jwyh2wc5KVwc6p0-10" value="&lt;div align=&quot;center&quot;&gt;&amp;lt;&amp;lt;external&amp;gt;&amp;gt;&lt;/div&gt;&lt;div align=&quot;center&quot;&gt;Login/Registration&lt;br&gt;&lt;/div&gt;" style="whiteSpace=wrap;html=1;aspect=fixed;align=center;" vertex="1" parent="1">
          <mxGeometry x="380" y="490" width="108" height="108" as="geometry" />
        </mxCell>
        <mxCell id="0XRb7Jwyh2wc5KVwc6p0-16" style="edgeStyle=orthogonalEdgeStyle;curved=1;orthogonalLoop=1;jettySize=auto;html=1;exitX=1;exitY=0.5;exitDx=0;exitDy=0;" edge="1" parent="1" source="0XRb7Jwyh2wc5KVwc6p0-11">
          <mxGeometry relative="1" as="geometry">
            <mxPoint x="320" y="440" as="targetPoint" />
          </mxGeometry>
        </mxCell>
        <mxCell id="0XRb7Jwyh2wc5KVwc6p0-11" value="&lt;div align=&quot;center&quot;&gt;&amp;lt;&amp;lt;external&amp;gt;&amp;gt;&lt;/div&gt;&lt;div align=&quot;center&quot;&gt;Payment&lt;br&gt;&lt;/div&gt;" style="whiteSpace=wrap;html=1;aspect=fixed;align=center;" vertex="1" parent="1">
          <mxGeometry x="132" y="490" width="108" height="108" as="geometry" />
        </mxCell>
      </root>
    </mxGraphModel>
  </diagram>
</mxfile>
